<?xml version="1.0" encoding="utf-8"?>
<!-- Generator: Adobe Illustrator 26.3.1, SVG Export Plug-In . SVG Version: 6.00 Build 0)  -->
<svg version="1.1"
	 id="svg2" xmlns:rdf="http://www.w3.org/1999/02/22-rdf-syntax-ns#" xmlns:cc="http://creativecommons.org/ns#" xmlns:dc="http://purl.org/dc/elements/1.1/" xmlns:svg="http://www.w3.org/2000/svg"
	 xmlns="http://www.w3.org/2000/svg" xmlns:xlink="http://www.w3.org/1999/xlink" x="0px" y="0px" viewBox="0 0 100 180"
	 style="enable-background:new 0 0 100 180;" xml:space="preserve">
<style type="text/css">
	.st0{fill:#F6F6F6;}
	.st1{fill:#78FEFE;}
	.st2{fill:#53ECEC;}
	.st3{fill:#33469D;}
	.st4{fill:#140D3D;}
	.st5{fill:#252064;}
</style>
<g id="layer1" transform="translate(-292.9142,-407.1698)">
	<g id="g3191" transform="translate(150.71429,29.285714)">
		<path id="path3207" class="st0" d="M214.2,379.9v2h4h4v2v2h2h2v2v2h2h2v2v2h2h2v28v28h2h2v2v2h2h2v2v2h-2h-2v2v2h-2h-2v44v44h-2
			h-2v2v2h-2h-2v2v2h-34h-34v-2v-2h-2h-2v-2v-2h-2h-2v-44v-44h-2h-2v-2v-2h-2h-2v-2v-2h2h2v-2v-2h2h2v-28v-28h2h2v-2v-2h2h2v-2v-2h2
			h2v-2v-2h4h4v-2v-2h22h22V379.9z"/>
		<path id="path3205" class="st1" d="M214.2,379.9v2h4h4v2v2h2h2v2v2h2h2v2v2h2h2v28v28h2h2v2v2h2h2v2v2h-2h-2v2v2h-2h-2v44v44h-2
			h-2v2v2h-2h-2v2v2h-34h-34v-2v-2h-2h-2v-2v-2h-2h-2v-44v-44h-2h-2v-2v-2h-2h-2v-2v-2h2h2v-2v-2h2h2v-28v-28h2h2v-2v-2h2h2v-2v-2h2
			h2v-2v-2h4h4v-2v-2h22h22V379.9z M166.2,449.9v4h2h2v2v2h2h2v-2v-2h-2h-2v-4v-4h-2h-2V449.9z M226.2,467.9v2h-2h-2v2v2h2h2v-2v-2
			h2h2v-2v-2h-2h-2V467.9z M154.2,467.9v2h2h2v2v2h2h2v-2v-2h-2h-2v-2v-2h-2h-2V467.9z M226.2,499.9v2h2h2v-2v-2h-2h-2V499.9z
			 M154.2,499.9v2h2h2v-2v-2h-2h-2V499.9z"/>
		<path id="path3203" class="st2" d="M214.2,379.9v2h4h4v2v2h2h2v2v2h2h2v2v2h2h2v28v28h2h2v2v2h2h2v2v2h-2h-2v2v2h-2h-2v44v44h-2
			h-2v2v2h-2h-2v2v2h-34h-34v-2v-2h-2h-2v-2v-2h-2h-2v-44v-44h-2h-2v-2v-2h-2h-2v-2v-2h2h2v-2v-2h2h2v-28v-28h2h2v-2v-2h2h2v-2v-2h2
			h2v-2v-2h4h4v-2v-2h22h22V379.9z M178.2,435.9v2h-6h-6v2v2h-4h-4v6v6h2h2v6v6h-2h-2v-4v-4h-2h-2v14v14h2h2v-4v-4h2h2v-6v-6h2h2v-2
			v-2h6h6v-2v-2h14h14v2v2h2h2v-4v-4h2h2v-8v-8h-4h-4v-2v-2h-14h-14V435.9z M226.2,461.9v4h-2h-2v6v6h2h2v4v4h2h2v-14v-14h-2h-2
			V461.9z M226.2,501.9v12h2h2v-12v-12h-2h-2V501.9z M154.2,501.9v12h2h2v-12v-12h-2h-2V501.9z"/>
		<path id="path3201" class="st3" d="M214.2,379.9v2h4h4v2v2h2h2v2v2h2h2v2v2h2h2v28v28h2h2v2v2h2h2v2v2h-2h-2v2v2h-2h-2v44v44h-2
			h-2v2v2h-2h-2v2v2h-34h-34v-2v-2h-2h-2v-2v-2h-2h-2v-44v-44h-2h-2v-2v-2h-2h-2v-2v-2h2h2v-2v-2h2h2v-28v-28h2h2v-2v-2h2h2v-2v-2h2
			h2v-2v-2h4h4v-2v-2h22h22V379.9z M178.2,435.9v2h-6h-6v2v2h-4h-4v6v6h2h2v6v6h-2h-2v-4v-4h-2h-2v14v14h2h2v-4v-4h2h2v-6v-6h2h2v-2
			v-2h6h6v-2v-2h14h14v2v2h6h6v2v2h2h2v6v6h2h2v4v4h2h2v-14v-14h-2h-2v4v4h-2h-2v-6v-6h2h2v-6v-6h-4h-4v-2v-2h-6h-6v-2v-2h-14h-14
			V435.9z M226.2,501.9v12h2h2v-12v-12h-2h-2V501.9z M154.2,501.9v12h2h2v-12v-12h-2h-2V501.9z"/>
		<path id="path3199" class="st4" d="M214.2,379.9v2h4h4v2v2h2h2v2v2h2h2v2v2h2h2v28v28h2h2v2v2h2h2v2v2h-2h-2v2v2h-2h-2v44v44h-2
			h-2v2v2h-2h-2v2v2h-34h-34v-2v-2h-2h-2v-2v-2h-2h-2v-44v-44h-2h-2v-2v-2h-2h-2v-2v-2h2h2v-2v-2h2h2v-28v-28h2h2v-2v-2h2h2v-2v-2h2
			h2v-2v-2h4h4v-2v-2h22h22V379.9z M170.2,395.9v2h-4h-4v2v2h-2h-2v2v2h-2h-2v16v16h6h6v2v2h-4h-4v6v6h2h2v6v6h-2h-2v-4v-4h-2h-2v14
			v14h2h2v-4v-4h2h2v18v18h-2h-2v-12v-12h-2h-2v12v12h2h2v2v2h-2h-2v16v16h2h2v2v2h2h2v-2v-2h2h2v2v2h6h6v-2v-2h-2h-2v-2v-2h-2h-2
			v-8v-8h-4h-4v10v10h-2h-2v-12v-12h2h2v-6v-6h2h2v6v6h6h6v-2v-2h-2h-2v-4v-4h-2h-2v-4v-4h-2h-2v-10v-10h2h2v-6v-6h2h2v-2v-2h2h2v-2
			v-2h-6h-6v-2v-2h6h6v-2v-2h14h14v2v2h6h6v2v2h2h2v6v6h2h2v4v4h2h2v-14v-14h-2h-2v4v4h-2h-2v-6v-6h2h2v-6v-6h-4h-4v-2v-2h-6h-6v-2
			v-2h-14h-14v2v2h-6h-6v-2v-2h-2h-2v-14v-14h2h2v-2v-2h4h4v-2v-2h2h2v-2v-2h-4h-4V395.9z M166.2,471.9v6h-2h-2v-6v-6h2h2V471.9z
			 M226.2,501.9v12h2h2v-12v-12h-2h-2V501.9z"/>
		<path id="path3197" class="st5" d="M214.2,379.9v2h4h4v2v2h2h2v2v2h2h2v2v2h2h2v28v28h2h2v2v2h2h2v2v2h-2h-2v2v2h-2h-2v44v44h-2
			h-2v2v2h-2h-2v2v2h-34h-34v-2v-2h-2h-2v-2v-2h-2h-2v-44v-44h-2h-2v-2v-2h-2h-2v-2v-2h2h2v-2v-2h2h2v-28v-28h2h2v-2v-2h2h2v-2v-2h2
			h2v-2v-2h4h4v-2v-2h22h22V379.9z M214.2,391.9v2h4h4v2v2h2h2v2v2h2h2v-2v-2h-2h-2v-2v-2h-2h-2v-2v-2h-4h-4V391.9z M162.2,391.9v2
			h-2h-2v2v2h-2h-2v2v2h2h2v2v2h-2h-2v16v16h6h6v2v2h-4h-4v6v6h2h2v6v6h-2h-2v-4v-4h-2h-2v-2v-2h-4h-4v2v2h4h4v14v14h2h2v-4v-4h2h2
			v18v18h-2h-2v-12v-12h-2h-2v12v12h2h2v2v2h-2h-2v16v16h2h2v2v2h2h2v-2v-2h2h2v2v2h16h16v-2v-2h6h6v-2v-2h2h2v-8v-8h-4h-4v-4v-4h4
			h4v-4v-4h2h2v-16v-16h-2h-2v-6v-6h-4h-4v-4v-4h6h6v2v2h2h2v6v6h2h2v4v4h2h2v-14v-14h4h4v-2v-2h-4h-4v2v2h-2h-2v4v4h-2h-2v-6v-6h2
			h2v-6v-6h-4h-4v-2v-2h-6h-6v-2v-2h8h8v-12v-12h-2h-2v-2v-2h-2h-2v-2v-2h-2h-2v-2v-2h-4h-4v-2v-2h-16h-16v-2v-2h-4h-4V391.9z
			 M170.2,395.9v2h-4h-4v2v2h-2h-2v-2v-2h2h2v-2v-2h4h4V395.9z M206.2,431.9v2h-14h-14v2v2h-6h-6v-2v-2h6h6v-2v-2h14h14V431.9z
			 M206.2,459.9v2h-14h-14v2v2h-6h-6v6v6h-2h-2v-6v-6h2h2v-2v-2h6h6v-2v-2h14h14V459.9z M166.2,519.9v6h6h6v2v2h14h14v2v2h-14h-14
			v-2v-2h-8h-8v10v10h-2h-2v-12v-12h2h2v-6v-6h2h2V519.9z M226.2,501.9v12h2h2v-12v-12h-2h-2V501.9z"/>
		<path id="path3195" class="st4" d="M214.2,379.9v2h4h4v2v2h2h2v2v2h2h2v2v2h2h2v28v28h2h2v2v2h2h2v2v2h-2h-2v2v2h-2h-2v44v44h-2
			h-2v2v2h-2h-2v2v2h-34h-34v-2v-2h-2h-2v-2v-2h-2h-2v-44v-44h-2h-2v-2v-2h-2h-2v-2v-2h2h2v-2v-2h2h2v-28v-28h2h2v-2v-2h2h2v-2v-2h2
			h2v-2v-2h4h4v-2v-2h22h22V379.9z M166.2,387.9v2h-4h-4v2v2h-2h-2v4v4h2h2v2v2h-2h-2v16v16h6h6v2v2h-4h-4v6v6h2h2v6v6h-2h-2v-4v-4
			h-2h-2v-2v-2h-4h-4v2v2h4h4v14v14h2h2v-4v-4h2h2v18v18h-2h-2v-12v-12h-2h-2v12v12h2h2v2v2h-2h-2v16v16h2h2v2v2h2h2v-2v-2h2h2v2v2
			h26h26v-2v-2h2h2v2v2h2h2v-2v-2h2h2v-16v-16h-2h-2v-2v-2h2h2v-12v-12h-2h-2v12v12h-2h-2v-18v-18h2h2v4v4h2h2v-14v-14h4h4v-2v-2h-4
			h-4v2v2h-2h-2v4v4h-2h-2v-6v-6h2h2v-6v-6h-4h-4v-2v-2h6h6v-16v-16h-2h-2v-2v-2h2h2v-2v-2h-2h-2v-2v-2h-2h-2v-2v-2h-2h-2v-2v-2h-26
			h-26V387.9z M214.2,391.9v2h4h4v2v2h2h2v2v2h-2h-2v-2v-2h-4h-4v-2v-2h-22h-22v2v2h-4h-4v2v2h-2h-2v-2v-2h2h2v-2v-2h4h4v-2v-2h22
			h22V391.9z M206.2,431.9v2h6h6v2v2h-6h-6v-2v-2h-14h-14v2v2h-6h-6v-2v-2h6h6v-2v-2h14h14V431.9z M206.2,459.9v2h6h6v2v2h2h2v6v6
			h-2h-2v-6v-6h-6h-6v-2v-2h-14h-14v2v2h-6h-6v6v6h-2h-2v-6v-6h2h2v-2v-2h6h6v-2v-2h14h14V459.9z M222.2,519.9v6h2h2v12v12h-2h-2
			v-10v-10h-8h-8v2v2h-14h-14v-2v-2h-8h-8v10v10h-2h-2v-12v-12h2h2v-6v-6h2h2v6v6h6h6v2v2h14h14v-2v-2h6h6v-6v-6h2h2V519.9z"/>
		<path id="path3193" d="M214.2,379.9v2h4h4v2v2h2h2v2v2h2h2v2v2h2h2v28v28h2h2v2v2h2h2v2v2h-2h-2v2v2h-2h-2v44v44h-2h-2v2v2h-2h-2
			v2v2h-34h-34v-2v-2h-2h-2v-2v-2h-2h-2v-44v-44h-2h-2v-2v-2h-2h-2v-2v-2h2h2v-2v-2h2h2v-28v-28h2h2v-2v-2h2h2v-2v-2h2h2v-2v-2h4h4
			v-2v-2h22h22V379.9z M170.2,383.9v2h-4h-4v2v2h-2h-2v2v2h-2h-2v4v4h2h2v2v2h-2h-2v16v16h6h6v2v2h-4h-4v6v6h2h2v6v6h-2h-2v-4v-4h-2
			h-2v-2v-2h-4h-4v2v2h4h4v14v14h2h2v-4v-4h2h2v18v18h-2h-2v-12v-12h-2h-2v12v12h2h2v2v2h-2h-2v16v16h2h2v2v2h2h2v-2v-2h2h2v2v2h26
			h26v-2v-2h2h2v2v2h2h2v-2v-2h2h2v-16v-16h-2h-2v-2v-2h2h2v-12v-12h-2h-2v12v12h-2h-2v-18v-18h2h2v4v4h2h2v-14v-14h4h4v-2v-2h-4h-4
			v2v2h-2h-2v4v4h-2h-2v-6v-6h2h2v-6v-6h-4h-4v-2v-2h6h6v-16v-16h-2h-2v-2v-2h2h2v-4v-4h-2h-2v-2v-2h-2h-2v-2v-2h-4h-4v-2v-2h-22
			h-22V383.9z M214.2,391.9v2h4h4v2v2h2h2v2v2h-2h-2v-2v-2h-4h-4v-2v-2h-22h-22v2v2h-4h-4v2v2h-2h-2v-2v-2h2h2v-2v-2h4h4v-2v-2h22
			h22V391.9z M206.2,431.9v2h6h6v2v2h-6h-6v-2v-2h-14h-14v2v2h-6h-6v-2v-2h6h6v-2v-2h14h14V431.9z M206.2,459.9v2h6h6v2v2h2h2v6v6
			h-2h-2v-6v-6h-6h-6v-2v-2h-14h-14v2v2h-6h-6v6v6h-2h-2v-6v-6h2h2v-2v-2h6h6v-2v-2h14h14V459.9z M222.2,519.9v6h2h2v12v12h-2h-2
			v-10v-10h-8h-8v2v2h-14h-14v-2v-2h-8h-8v10v10h-2h-2v-12v-12h2h2v-6v-6h2h2v6v6h6h6v2v2h14h14v-2v-2h6h6v-6v-6h2h2V519.9z"/>
	</g>
</g>
</svg>
